<svg xmlns="http://www.w3.org/2000/svg" width="50" height="50" fill="none" viewBox="0 0 50 50">
  <path fill="#000" d="M30.313 21.875c.324 0 .644.072.937.212v-2.4a2.187 2.187 0 0 1 3.231-1.922 2.187 2.187 0 0 1 4.269.672v.525a2.188 2.188 0 0 1 3.125 1.976v5.937a6.875 6.875 0 0 1-13.75 0v-2.813a2.188 2.188 0 0 1 2.188-2.187Zm-.938 5a5.625 5.625 0 1 0 11.25 0v-5.938a.937.937 0 1 0-1.875 0v3.438a.625.625 0 1 1-1.25 0v-5.938a.937.937 0 1 0-1.875 0v5.313a.625.625 0 1 1-1.25 0v-4.063a.937.937 0 1 0-1.875 0v5.365a3.757 3.757 0 0 1 3.125 3.698.625.625 0 1 1-1.25 0 2.5 2.5 0 0 0-2.5-2.5.625.625 0 0 1-.625-.625v-1.563a.937.937 0 1 0-1.875 0v2.813Zm-9.687-5c-.325 0-.645.072-.938.212v-2.4a2.187 2.187 0 0 0-3.231-1.922 2.187 2.187 0 0 0-4.269.672v.525a2.188 2.188 0 0 0-3.125 1.976v5.937a6.875 6.875 0 0 0 13.75 0v-2.813a2.188 2.188 0 0 0-2.188-2.187Zm.937 5a5.625 5.625 0 1 1-11.25 0v-5.938a.937.937 0 1 1 1.875 0v3.438a.625.625 0 1 0 1.25 0v-5.938a.937.937 0 1 1 1.875 0v5.313a.625.625 0 1 0 1.25 0v-4.063a.937.937 0 1 1 1.875 0v5.365a3.757 3.757 0 0 0-3.125 3.698.625.625 0 1 0 1.25 0 2.5 2.5 0 0 1 2.5-2.5.625.625 0 0 0 .625-.625v-1.563a.937.937 0 1 1 1.875 0v2.813Z"/>
</svg>
