<svg xmlns="http://www.w3.org/2000/svg" width="50" height="50" fill="none" viewBox="0 0 50 50">
  <path fill="#000" d="M30.313 11.875c.324 0 .644.072.937.212v-2.4a2.187 2.187 0 0 1 3.231-1.921 2.187 2.187 0 0 1 4.269.671v.525a2.187 2.187 0 0 1 3.125 1.976v5.937a6.875 6.875 0 0 1-13.75 0v-2.813a2.188 2.188 0 0 1 2.188-2.187Zm-.938 5a5.625 5.625 0 1 0 11.25 0v-5.938a.937.937 0 1 0-1.875 0v3.438a.625.625 0 1 1-1.25 0V8.437a.938.938 0 0 0-1.875 0v5.313a.625.625 0 1 1-1.25 0V9.687a.938.938 0 0 0-1.875 0v5.365a3.757 3.757 0 0 1 3.125 3.698.625.625 0 1 1-1.25 0 2.5 2.5 0 0 0-2.5-2.5.625.625 0 0 1-.625-.625v-1.563a.937.937 0 1 0-1.875 0v2.813Zm-9.687-5c-.325 0-.645.072-.938.212v-2.4a2.187 2.187 0 0 0-3.231-1.921 2.187 2.187 0 0 0-4.269.671v.525a2.188 2.188 0 0 0-3.125 1.976v5.937a6.875 6.875 0 0 0 13.75 0v-2.813a2.188 2.188 0 0 0-2.188-2.187Zm.937 5a5.625 5.625 0 1 1-11.25 0v-5.938a.937.937 0 1 1 1.875 0v3.438a.625.625 0 1 0 1.25 0V8.437a.938.938 0 0 1 1.875 0v5.313a.625.625 0 1 0 1.25 0V9.687a.938.938 0 0 1 1.875 0v5.365a3.757 3.757 0 0 0-3.125 3.698.625.625 0 1 0 1.25 0 2.5 2.5 0 0 1 2.5-2.5.625.625 0 0 0 .625-.625v-1.563a.937.937 0 1 1 1.875 0v2.813Zm2.708 10.542c.084.916-.458 1.708-1.125 1.75-.666.041-1.291-.667-1.375-1.584-.083-.916.459-1.708 1.125-1.75.667-.041 1.292.667 1.375 1.584Zm1.167-.75c-.459.041-.792.625-.75 1.291.041.667.458 1.25.916 1.209.459-.042.792-.625.75-1.292-.041-.667-.458-1.25-.916-1.208Zm1.791.958c-.333-.042-.625.375-.666.875-.042.5.25.958.583.958.334 0 .625-.375.667-.875.041-.5-.25-.958-.584-.958Zm1.5.708c-.291-.041-.625.292-.708.75A.75.75 0 0 0 27.5 30c.291.042.583-.292.666-.75a.792.792 0 0 0-.375-.917Zm1.25 1.042c-.25-.042-.5.208-.541.542a.583.583 0 0 0 .25.708c.25.042.458-.208.541-.542a.583.583 0 0 0-.25-.708ZM23.334 30c-.833 0-2.5.417-2.083 2.5.416 2.083 3.333 2.917 3.333 4.583 0 1.667-1.25 2.084-2.083 3.75-.834 1.667 0 2.917 1.25 3.334a2.833 2.833 0 0 0 3.333-1.667c.417-1.25-.25-1.75.417-3.75.416-1.25 1.25-1.667 1.666-4.167C29.75 31.208 26.25 30 23.334 30Z"/>
</svg>
