<!-- This icon is provided by Iconify (https://iconify.design/) -->
<svg xmlns="http://www.w3.org/2000/svg" width="50" height="50" fill="none" viewBox="0 0 50 50">
  <g clip-path="url(#a)">
    <path fill="#000" d="M18.759 19a.938.938 0 0 1 .937-.938h4.366v-4.366a.937.937 0 1 1 1.875 0v4.367h4.367a.938.938 0 0 1 0 1.875h-4.366v4.366a.937.937 0 1 1-1.875 0v-4.366h-4.367A.937.937 0 0 1 18.76 19Z"/>
    <path fill="#000" fill-rule="evenodd" d="M19.146 8.711a53.124 53.124 0 0 1 11.708 0c2.284.255 4.127 2.054 4.395 4.35a51.022 51.022 0 0 1 0 11.879c-.269 2.296-2.113 4.094-4.395 4.35a53.17 53.17 0 0 1-11.708 0c-2.284-.256-4.127-2.054-4.395-4.35a51.253 51.253 0 0 1 0-11.879c.268-2.296 2.113-4.095 4.395-4.35Zm11.5 1.863a51.246 51.246 0 0 0-11.292 0 3.108 3.108 0 0 0-2.741 2.706 49.249 49.249 0 0 0 0 11.442 3.107 3.107 0 0 0 2.74 2.705c3.722.415 7.572.415 11.293 0a3.107 3.107 0 0 0 2.74-2.705 49.249 49.249 0 0 0 0-11.442 3.108 3.108 0 0 0-2.74-2.704" clip-rule="evenodd"/>
    <path fill="#000" d="M20.046 45.338h-1.807l-.91-2.574h-3.16l-.922 2.574h-1.703l3.484-9.373h1.495l3.523 9.373Zm-5.395-3.965h2.197l-.637-1.911a34.097 34.097 0 0 1-.273-.78 29.383 29.383 0 0 0-.195-.663c-.035.13-.07.247-.104.351a6.394 6.394 0 0 1-.091.325 21.3 21.3 0 0 1-.117.338 6.244 6.244 0 0 1-.143.429l-.637 1.911Zm10.05-5.408c1.396 0 2.423.347 3.081 1.04.659.685.988 1.677.988 2.977v1.339c0 .65-.073 1.226-.22 1.729-.148.494-.386.91-.716 1.248-.32.338-.736.594-1.248.767-.511.182-1.13.273-1.859.273h-3.289v-9.373h3.263Zm-1.612 7.969h1.391c.416 0 .785-.048 1.105-.143.33-.095.603-.247.82-.455.225-.208.394-.481.506-.819.122-.347.182-.767.182-1.261v-1.209c0-.988-.22-1.681-.663-2.08-.433-.399-1.083-.598-1.95-.598h-1.39v6.565Zm10.815-7.969c1.395 0 2.422.347 3.08 1.04.66.685.989 1.677.989 2.977v1.339c0 .65-.074 1.226-.221 1.729-.148.494-.386.91-.715 1.248-.32.338-.737.594-1.248.767-.511.182-1.131.273-1.86.273h-3.288v-9.373h3.263Zm-1.612 7.969h1.39a3.9 3.9 0 0 0 1.106-.143 1.93 1.93 0 0 0 .819-.455c.225-.208.394-.481.507-.819.121-.347.182-.767.182-1.261v-1.209c0-.988-.221-1.681-.663-2.08-.434-.399-1.084-.598-1.95-.598h-1.391v6.565Z"/>
  </g>
  <defs>
    <clipPath id="a">
      <path fill="#fff" d="M0 0h50v50H0z"/>
    </clipPath>
  </defs>
</svg>
