<svg xmlns="http://www.w3.org/2000/svg" width="50" height="50" fill="none" viewBox="0 0 50 50">
  <g clip-path="url(#a)">
    <path fill="#000" d="M20.046 45.338h-1.807l-.91-2.574h-3.16l-.922 2.574h-1.703l3.484-9.373h1.495l3.523 9.373Zm-5.395-3.965h2.197l-.637-1.911a34.097 34.097 0 0 1-.273-.78 29.383 29.383 0 0 0-.195-.663c-.035.13-.07.247-.104.351a6.394 6.394 0 0 1-.091.325 21.3 21.3 0 0 1-.117.338 6.244 6.244 0 0 1-.143.429l-.637 1.911Zm10.05-5.408c1.396 0 2.423.347 3.081 1.04.659.685.988 1.677.988 2.977v1.339c0 .65-.073 1.226-.22 1.729-.148.494-.386.91-.716 1.248-.32.338-.736.594-1.248.767-.511.182-1.13.273-1.859.273h-3.289v-9.373h3.263Zm-1.612 7.969h1.391c.416 0 .785-.048 1.105-.143.33-.095.603-.247.82-.455.225-.208.394-.481.506-.819.122-.347.182-.767.182-1.261v-1.209c0-.988-.22-1.681-.663-2.08-.433-.399-1.083-.598-1.95-.598h-1.39v6.565Zm10.815-7.969c1.395 0 2.422.347 3.08 1.04.66.685.989 1.677.989 2.977v1.339c0 .65-.074 1.226-.221 1.729-.148.494-.386.91-.715 1.248-.32.338-.737.594-1.248.767-.511.182-1.131.273-1.86.273h-3.288v-9.373h3.263Zm-1.612 7.969h1.39a3.9 3.9 0 0 0 1.106-.143 1.93 1.93 0 0 0 .819-.455c.225-.208.394-.481.507-.819.121-.347.182-.767.182-1.261v-1.209c0-.988-.221-1.681-.663-2.08-.434-.399-1.084-.598-1.95-.598h-1.391v6.565Z"/>
    <path fill="#000" fill-rule="evenodd" d="M32.111 8.889 32 9h-.667l-.11.111h-.445l-.111.111h-.445l-.11.111h-.445l-.111.111h-.334l-.11.112h-.445l-.111.11h-.334l-.11.112h-.334l-.111.11h-.334l-.11.112h-.445l-.111.111h-.334l-.11.111h-.445l-.111.111h-.334l-.11.111h-.556l-.111.112H22.11l-.11-.111h-.444l-.111-.112h-.334l-.111-.11h-.333l-.111-.112h-.223l-.11-.111H20l-.111-.111h-.222l-.111-.111h-.223l-.11-.111H19l-.111-.111h-.556l-.11-.112H17l-.111.112H16l-.111.11h-.444l-.112.112h-.222l-.111.11h-.111l-.111.112h-.222l-.111.111h-.112l-.222.222H14l-.111.111h-.111l-.334.334h-.11l-1 1v.11l-.223.223v.111l-.222.223v.11l-.111.112v.11l-.111.112v.222l-.111.111v.111l-.111.111v.445l-.112.111v1.556l.111.11v.445l.112.111v.334l.11.11v.223l.112.111v.111l.333.334v.11l.556.556h.11l.112.111H13l.111.111h.111l.111.112h.111l.112.11h.222l.11.112h.223l.111.11h.223l.11.112h.112l.11.111h.112l.111.111h.111l.222.222v.112l.111.11v.112l.112.11v.334l.11.111v.334l.112.11v.223l.11.111v.111l.445.445h.112l.333.333h.11l.223.222h.111l.334.334h.11l.223.222H18l.333.333h.112l.555.556h.111l.778.777H20l.445.445v.11l.444.445v.334l-.111.11v.334l.11.111v.223l.112.11v.112l.111.11v.112l.334.333v.111l.555.556h.111l.222.222h.112l.222.222h.222l.111.112h.222l.111.11h.445l.11.112H26l.111-.111h.556l.11-.111h.334l.111-.112h.223l.11-.11h.223l.11-.112h.223l.111-.111h.111l.112-.111h.11l.112-.111h.11l.112-.111H29l.222-.223h.111l.112-.11h.11l.223-.223h.11l.223-.222h.111l.223-.222h.11l.223-.223h.11l.223-.222h.111l.445-.444h.11l.445-.445h.111l1.778-1.777v-.111l.222-.223v-.11l.223-.223v-.111l.11-.111v-.111l.112-.111v-.112l.11-.11V22l.112-.111v-.667l-.111-.11v-.334l-.111-.111v-.111l-.111-.111v-.223l-.111-.11v-.445l-.111-.111v-.445l.11-.111v-.111l.223-.222v-.111l.333-.334h.111l.667-.666H36l1.778-1.778v-.111l.222-.223v-.11l.111-.112v-.11l.111-.112v-.111l.111-.111v-.111l.111-.111v-.223l.112-.11v-.445l.11-.111v-1.445l-.11-.11v-.445l-.111-.111v-.223l-.112-.11V11l-.11-.111v-.111l-.112-.111v-.111L38 10.445v-.112l-.111-.11v-.112l-.556-.555h-.11L37 9.333h-.111l-.111-.11h-.222l-.111-.112h-.112L36.223 9h-.556l-.111-.111H32.11Zm-8 6.556.111-.112h1.111l.112.111h.222l.11.112H26l.111.11h.111l.223.223h.11l.667.667v.11l.223.223V17l.11.111v.222l.112.112v.222l.11.11v1.112l-.11.111v.222l-.111.111v.223l-.111.11v.112l-.223.222v.111l-.666.667h-.111l-.223.222h-.11l-.112.111h-.222l-.111.111h-.223l-.11.111h-1.112l-.11-.11h-.223l-.111-.112h-.222L23.445 21h-.112l-.222-.222H23l-.667-.667V20l-.222-.222v-.111L22 19.556v-.223l-.111-.11V19l-.111-.111v-1.111l.11-.111v-.223l.112-.11v-.223l.111-.111v-.111l.222-.222v-.111l.667-.667h.111l.222-.222h.112l.11-.111h.223l.11-.111h.223Z" clip-rule="evenodd"/>
  </g>
  <defs>
    <clipPath id="a">
      <path fill="#fff" d="M0 0h50v50H0z"/>
    </clipPath>
  </defs>
</svg>
