<svg xmlns="http://www.w3.org/2000/svg" width="100" height="100" fill="none" viewBox="0 0 100 100">
  <path fill="#fff" d="M0 0h100v100H0z"/>
  <path fill="#000" d="M7.364 92.7c-.112 0-.168-.047-.168-.14V82.34c0-.13.056-.196.168-.196h2.422c1.064 0 1.89.22 2.478.658.597.439.896 1.11.896 2.016 0 .56-.117 1.04-.35 1.442-.225.392-.546.7-.966.924.27.103.504.238.7.406.205.168.373.36.503.574.14.215.243.443.308.686.066.233.098.467.098.7 0 1.055-.345 1.843-1.035 2.366-.691.523-1.69.784-2.996.784H7.364Zm1.428-9.072v2.842h.756c.737 0 1.26-.14 1.568-.42.308-.29.462-.658.462-1.106 0-.392-.136-.71-.406-.952-.271-.243-.733-.364-1.386-.364h-.994Zm-.028 4.354v3.22h.686c.896 0 1.52-.14 1.876-.42.364-.29.545-.681.545-1.176 0-.504-.196-.9-.588-1.19-.391-.29-1.054-.434-1.987-.434h-.532Zm14.72 3.388a3.81 3.81 0 0 1-1.526 1.176c-.588.261-1.25.392-1.988.392-.822 0-1.53-.15-2.128-.448a4.034 4.034 0 0 1-1.456-1.19 5.34 5.34 0 0 1-.84-1.75 8.306 8.306 0 0 1-.266-2.128c0-.728.093-1.423.28-2.086a5.17 5.17 0 0 1 .854-1.764 4.17 4.17 0 0 1 1.456-1.204c.588-.299 1.288-.448 2.1-.448.793 0 1.484.154 2.072.462a4.17 4.17 0 0 1 1.456 1.204c.392.504.681 1.087.868 1.75.196.663.29 1.358.28 2.086-.01.821-.108 1.563-.294 2.226a4.913 4.913 0 0 1-.868 1.722Zm-3.514-7.952c-.542 0-1.008.121-1.4.364-.383.233-.7.541-.952.924a4.221 4.221 0 0 0-.546 1.288 6.216 6.216 0 0 0 0 2.87c.121.476.303.905.546 1.288.252.383.57.695.952.938.392.233.858.35 1.4.35.541 0 1.003-.117 1.386-.35a2.95 2.95 0 0 0 .952-.938c.242-.383.42-.812.532-1.288a5.93 5.93 0 0 0 .014-2.856 3.976 3.976 0 0 0-.546-1.288 2.95 2.95 0 0 0-.952-.938c-.383-.243-.845-.364-1.386-.364Zm13.133 8.708c-.345.27-.732.471-1.162.602-.42.14-.877.21-1.372.21-.97 0-1.81-.27-2.52-.812a3.104 3.104 0 0 1-1.022-1.33c-.205-.541-.308-1.162-.308-1.862V82.34a.27.27 0 0 1 .042-.14c.038-.047.08-.07.126-.07h1.246c.047 0 .084.019.112.056.038.037.056.08.056.126v6.622c0 .728.192 1.325.574 1.792.383.467.948.7 1.694.7.766 0 1.335-.229 1.708-.686.383-.457.574-1.06.574-1.806v-6.622c0-.047.014-.089.042-.126a.174.174 0 0 1 .126-.056h1.246c.047 0 .084.023.112.07a.224.224 0 0 1 .056.14v6.594c0 .69-.112 1.307-.336 1.848-.214.541-.546.99-.994 1.344Zm3.914.574a.174.174 0 0 1-.126-.056.151.151 0 0 1-.042-.112v-10.22a.15.15 0 0 1 .042-.112.174.174 0 0 1 .126-.056h1.26c.047 0 .084.019.112.056a.133.133 0 0 1 .056.112v8.918h3.626c.112 0 .168.06.168.182v1.12a.133.133 0 0 1-.056.112.133.133 0 0 1-.112.056h-5.054Zm12.843-1.204a4.123 4.123 0 0 1-.854.532c-.317.15-.658.27-1.022.364a7.389 7.389 0 0 1-1.134.224 8.205 8.205 0 0 1-1.162.084H43.98c-.158 0-.256-.019-.294-.056-.028-.037-.042-.126-.042-.266v-9.87c0-.177.014-.28.042-.308.038-.037.145-.056.322-.056h2.38c1.82 0 3.174.513 4.06 1.54.392.448.682.97.868 1.568.196.588.294 1.302.294 2.142 0 .868-.154 1.657-.462 2.366a4.327 4.327 0 0 1-1.288 1.736Zm-.616-6.762c-.597-.737-1.558-1.106-2.884-1.106h-1.092v7.574h.63c.542 0 1.05-.065 1.526-.196.476-.14.896-.36 1.26-.658.42-.317.742-.723.966-1.218.234-.504.35-1.101.35-1.792 0-.56-.06-1.055-.182-1.484a2.897 2.897 0 0 0-.574-1.12Zm5.076 7.98c-.186 0-.298-.019-.336-.056-.037-.028-.056-.145-.056-.35v-9.786c0-.187.014-.294.042-.322.038-.037.145-.056.322-.056h4.97c.103 0 .164.019.182.056.019.028.028.084.028.168v1.036c0 .093-.014.159-.042.196-.028.028-.084.042-.168.042h-3.794v2.856h3.612c.14 0 .21.075.21.224v1.05c0 .159-.07.238-.21.238h-3.612v3.192h3.962c.131 0 .196.08.196.238v1.05c0 .15-.065.224-.196.224h-5.11Zm13.33-.014a.65.65 0 0 1-.223-.028c-.038-.01-.08-.047-.126-.112l-2.142-4.144h-1.596v4.102c0 .121-.06.182-.182.182h-1.246c-.112 0-.168-.06-.168-.182V82.312a.15.15 0 0 1 .042-.112.174.174 0 0 1 .126-.056h2.828c1.036 0 1.857.252 2.464.756.606.504.91 1.288.91 2.352 0 .681-.15 1.26-.448 1.736a2.86 2.86 0 0 1-1.232 1.064l2.338 4.452c.074.13.018.196-.168.196H67.65Zm-4.087-9.086v3.346h1.148c.616 0 1.106-.13 1.47-.392.364-.27.546-.714.546-1.33 0-.532-.145-.933-.434-1.204-.28-.28-.658-.42-1.134-.42h-1.596Zm8.415 8.904c0 .121-.061.182-.182.182h-1.274c-.122 0-.182-.06-.182-.182V82.326c0-.121.06-.182.182-.182h1.274c.121 0 .182.06.182.182v10.192Zm8.262.182a.279.279 0 0 1-.168-.042.678.678 0 0 1-.14-.182l-4.396-7.56v7.56c0 .093-.014.154-.042.182-.028.028-.088.042-.182.042H74.15a.279.279 0 0 1-.168-.042c-.037-.028-.056-.089-.056-.182V82.382c0-.112.019-.182.056-.21.038-.037.108-.056.21-.056h1.288c.075 0 .131.014.168.042.038.019.084.08.14.182l4.396 7.546V82.34c0-.093.014-.154.042-.182.028-.028.089-.042.182-.042h1.162c.094 0 .15.014.168.042.028.028.042.089.042.182v10.094c0 .112-.018.182-.056.21-.028.037-.093.056-.196.056H80.24Zm12.16-.322a2.785 2.785 0 0 1-.616.21 7.967 7.967 0 0 1-.798.168c-.28.047-.57.08-.868.098a8.59 8.59 0 0 1-.826.042 6.223 6.223 0 0 1-2.156-.364 4.75 4.75 0 0 1-1.694-1.064 4.916 4.916 0 0 1-1.12-1.722c-.27-.681-.406-1.456-.406-2.324a6.1 6.1 0 0 1 .378-2.184 5.007 5.007 0 0 1 1.078-1.736 4.873 4.873 0 0 1 1.694-1.134c.663-.27 1.41-.406 2.24-.406.56 0 1.06.033 1.498.098.439.056.854.145 1.246.266.103.028.163.06.182.098.019.028.023.06.014.098l-.168 1.19c-.01.065-.032.112-.07.14-.037.028-.107.023-.21-.014a7.694 7.694 0 0 0-1.246-.294 7.673 7.673 0 0 0-1.26-.098c-.56 0-1.069.098-1.526.294a3.24 3.24 0 0 0-1.176.812c-.327.345-.583.76-.77 1.246a4.705 4.705 0 0 0-.266 1.624c0 .644.089 1.218.266 1.722.187.495.444.915.77 1.26a3.4 3.4 0 0 0 1.19.77c.457.168.962.252 1.512.252.42 0 .784-.019 1.092-.056.308-.037.537-.093.686-.168v-2.814h-2.31a.227.227 0 0 1-.14-.042.205.205 0 0 1-.042-.126V87.1a.19.19 0 0 1 .056-.14.224.224 0 0 1 .14-.056h3.584c.14 0 .229.023.266.07.038.047.056.14.056.28v4.62a.53.53 0 0 1-.084.322.723.723 0 0 1-.196.182Z"/>
  <g clip-path="url(#a)">
    <path stroke="#000" stroke-width="5" d="m60 20-9.053 9.052a7.5 7.5 0 0 1-5.305 2.198H36.25l-5.302 5.303a7.5 7.5 0 0 0-2.198 5.305V50m7.5-12.5v11.39a4.863 4.863 0 0 0 8.3 3.435l8.575-8.575h.625l.74 1.48a17.7 17.7 0 0 0 9.26 8.52M50 54.995l-.14-.275-.485-.97.625 1.245Zm0 0A26.55 26.55 0 0 0 63.75 67.5m5 2.5V30l-6.25-6.25M50 11.25l6.25 6.25m-10 13.75v12.5m-7.013-17.5s-4.525-1.392-5.337-4.44a4.425 4.425 0 0 1 3.105-5.407 4.375 4.375 0 0 1 5.365 3.125c.81 3.047-2.405 6.524-2.405 6.524l-.728.198Z"/>
  </g>
  <defs>
    <clipPath id="a">
      <path fill="#fff" d="M20 10h60v60H20z"/>
    </clipPath>
  </defs>
</svg>
