<svg xmlns="http://www.w3.org/2000/svg" width="50" height="50" fill="none" viewBox="0 0 50 50">
  <g clip-path="url(#a)">
    <path fill="#000" d="M5.66 36.528c.609 0 1.145.072 1.609.216.472.144.928.392 1.368.744l-.828 1.176c-.352-.296-.7-.488-1.044-.576a4.091 4.091 0 0 0-1.104-.144c-.256 0-.508.04-.756.12a1.476 1.476 0 0 0-.66.408c-.192.2-.348.472-.468.816-.12.344-.18.784-.18 1.32v.888c0 .456.056.844.168 1.164.112.32.26.58.444.78.192.2.412.348.66.444.248.088.508.132.78.132.4 0 .808-.06 1.224-.18a2.69 2.69 0 0 0 1.152-.72l.816 1.176c-.256.256-.528.46-.816.612a4.6 4.6 0 0 1-.84.336c-.28.088-.556.144-.828.168a8.762 8.762 0 0 1-.768.036c-.472 0-.924-.068-1.356-.204a3.059 3.059 0 0 1-1.128-.648 3.203 3.203 0 0 1-.768-1.128c-.192-.456-.288-1.008-.288-1.656V40.26c0-.648.092-1.204.276-1.668.192-.472.452-.86.78-1.164a3.02 3.02 0 0 1 1.14-.684c.44-.144.912-.216 1.416-.216Zm11.791 8.784h-1.668l-.84-2.376h-2.916l-.852 2.376H9.603l3.216-8.652h1.38l3.252 8.652Zm-4.98-3.66H14.5l-.588-1.764a31.777 31.777 0 0 1-.252-.72c-.056-.2-.116-.404-.18-.612a5.57 5.57 0 0 1-.096.324 5.83 5.83 0 0 1-.192.612 5.703 5.703 0 0 1-.132.396l-.588 1.764Zm6.273-4.992h1.764l2.952 5.244c.088.16.184.36.288.6.112.232.2.488.264.768V36.66h1.44v8.652h-1.764l-2.964-5.256a5.67 5.67 0 0 1-.312-.624 4.067 4.067 0 0 1-.228-.708v6.588h-1.44V36.66Zm12.049-.132c.608 0 1.144.072 1.608.216.472.144.928.392 1.368.744l-.828 1.176c-.352-.296-.7-.488-1.044-.576a4.091 4.091 0 0 0-1.104-.144c-.256 0-.508.04-.756.12a1.476 1.476 0 0 0-.66.408c-.192.2-.348.472-.468.816-.12.344-.18.784-.18 1.32v.888c0 .456.056.844.168 1.164.112.32.26.58.444.78.192.2.412.348.66.444.248.088.508.132.78.132.4 0 .808-.06 1.224-.18a2.69 2.69 0 0 0 1.152-.72l.816 1.176c-.256.256-.528.46-.816.612a4.6 4.6 0 0 1-.84.336c-.28.088-.556.144-.828.168a8.762 8.762 0 0 1-.768.036c-.472 0-.924-.068-1.356-.204a3.059 3.059 0 0 1-1.128-.648 3.203 3.203 0 0 1-.768-1.128c-.192-.456-.288-1.008-.288-1.656V40.26c0-.648.092-1.204.276-1.668.192-.472.452-.86.78-1.164a3.02 3.02 0 0 1 1.14-.684c.44-.144.912-.216 1.416-.216Zm10.266.132v1.272h-4.044v2.328h3.792v1.248h-3.792v2.532h4.128v1.272h-5.652V36.66h5.568Zm3.369 0v7.356h3.948v1.296h-5.484V36.66h1.536Z"/>
    <path stroke="#000" stroke-width="1.5" d="M20.313 8.688a5.625 5.625 0 0 0-5.625 5.624v9.376a5.625 5.625 0 0 0 5.624 5.625h9.375a5.625 5.625 0 0 0 5.625-5.625v-9.375a5.625 5.625 0 0 0-5.624-5.626h-9.375Z"/>
    <path stroke="#000" stroke-linecap="round" stroke-width="1.5" d="m20.819 14.819 8.362 8.362m0-8.362L20.82 23.18"/>
  </g>
  <defs>
    <clipPath id="a">
      <path fill="#fff" d="M0 0h50v50H0z"/>
    </clipPath>
  </defs>
</svg>
