<!-- This icon is provided by Iconify (https://iconify.design/) -->
<svg xmlns="http://www.w3.org/2000/svg" width="50" height="50" fill="none" viewBox="0 0 50 50">
  <path fill="#1D1B20" d="M20.125 27.75a2.006 2.006 0 0 1-1.471-.612 2.006 2.006 0 0 1-.612-1.471V12.125H17v-2.083h5.208V9h6.25v1.042h5.209v2.083h-1.042v13.542c0 .573-.204 1.063-.612 1.471a2.006 2.006 0 0 1-1.471.612H20.125Zm10.417-15.625H20.125v13.542h10.417V12.125Zm-8.334 11.458h2.084v-9.375h-2.084v9.375Zm4.167 0h2.083v-9.375h-2.083v9.375Z"/>
  <path fill="#000" d="M5.313 35.965c1.395 0 2.422.347 3.081 1.04.659.685.988 1.677.988 2.977v1.339c0 .65-.074 1.226-.22 1.729-.148.494-.387.91-.716 1.248-.32.338-.737.594-1.248.767-.511.182-1.13.273-1.859.273H2.05v-9.373h3.263Zm-1.612 7.969h1.391c.416 0 .784-.048 1.105-.143a1.94 1.94 0 0 0 .82-.455c.224-.208.393-.481.506-.819.121-.347.182-.767.182-1.261v-1.209c0-.988-.22-1.681-.663-2.08-.433-.399-1.083-.598-1.95-.598h-1.39v6.565Zm13.584-7.969v1.378h-4.381v2.522h4.108v1.352h-4.108v2.743h4.472v1.378h-6.123v-9.373h6.032Zm3.64 0v7.969h4.278v1.404h-5.941v-9.373h1.664Zm11.718 0v1.378h-4.381v2.522h4.108v1.352h-4.108v2.743h4.472v1.378H26.61v-9.373h6.032Zm8.217 0v1.404h-2.743v7.969h-1.664v-7.969h-2.756v-1.404h7.163Zm7.319 0v1.378h-4.381v2.522h4.108v1.352h-4.108v2.743h4.472v1.378h-6.123v-9.373h6.032Z"/>
</svg>
