<svg width="12" height="15" viewBox="0 0 12 15" fill="none" xmlns="http://www.w3.org/2000/svg">
<path d="M5.33333 7.33333V0.666667C5.33333 0.477778 5.39722 0.319444 5.525 0.191667C5.65278 0.0638889 5.81111 0 6 0C6.18889 0 6.34722 0.0638889 6.475 0.191667C6.60278 0.319444 6.66667 0.477778 6.66667 0.666667V7.33333H5.33333ZM2.66667 7.33333V1.33333C2.66667 1.14444 2.73056 0.986111 2.85833 0.858333C2.98611 0.730556 3.14444 0.666667 3.33333 0.666667C3.52222 0.666667 3.68056 0.730556 3.80833 0.858333C3.93611 0.986111 4 1.14444 4 1.33333V7.33333H2.66667ZM5.66667 14.6667C4.08889 14.6667 2.75 14.1167 1.65 13.0167C0.55 11.9167 0 10.5778 0 9V2.66667C0 2.47778 0.0638889 2.31944 0.191667 2.19167C0.319444 2.06389 0.477778 2 0.666667 2C0.855556 2 1.01389 2.06389 1.14167 2.19167C1.26944 2.31944 1.33333 2.47778 1.33333 2.66667V9C1.33333 10.2111 1.75278 11.2361 2.59167 12.075C3.43056 12.9139 4.45556 13.3333 5.66667 13.3333C6.87778 13.3333 7.90278 12.9139 8.74167 12.075C9.58056 11.2361 10 10.2111 10 9V6.66667C9.81111 6.66667 9.65278 6.73056 9.525 6.85833C9.39722 6.98611 9.33333 7.14444 9.33333 7.33333V10H7.33333C6.96667 10 6.65278 10.1306 6.39167 10.3917C6.13056 10.6528 6 10.9667 6 11.3333V12H4.66667V11.3333C4.66667 10.6 4.92778 9.97222 5.45 9.45C5.97222 8.92778 6.6 8.66667 7.33333 8.66667H8V6.76667V2C8 1.81111 8.06389 1.65278 8.19167 1.525C8.31944 1.39722 8.47778 1.33333 8.66667 1.33333C8.85556 1.33333 9.01389 1.39722 9.14167 1.525C9.26944 1.65278 9.33333 1.81111 9.33333 2V5.45C9.44444 5.41667 9.55278 5.38889 9.65833 5.36667C9.76389 5.34444 9.87778 5.33333 10 5.33333H11.3333V9C11.3333 10.5778 10.7833 11.9167 9.68333 13.0167C8.58333 14.1167 7.24444 14.6667 5.66667 14.6667Z" fill="#465C7D"/>
</svg>
