<svg xmlns="http://www.w3.org/2000/svg" width="100" height="100" fill="none" viewBox="0 0 100 100">
  <path fill="#fff" d="M0 0h100v100H0z"/>
  <path fill="#000" d="M9.196 92.714c-.186 0-.298-.019-.336-.056-.037-.028-.056-.145-.056-.35v-9.786c0-.187.014-.294.042-.322.038-.037.145-.056.322-.056h4.97c.103 0 .164.019.182.056.019.028.028.084.028.168v1.036c0 .093-.014.159-.042.196-.028.028-.084.042-.168.042h-3.794v2.856h3.612c.14 0 .21.075.21.224v1.05c0 .159-.07.238-.21.238h-3.612v3.192h3.962c.131 0 .196.08.196.238v1.05c0 .15-.065.224-.196.224h-5.11Zm13.82-.014c-.074 0-.13-.014-.167-.042a.678.678 0 0 1-.14-.182l-4.396-7.56v7.56c0 .093-.014.154-.042.182-.028.028-.089.042-.182.042h-1.162c-.075 0-.131-.014-.168-.042-.038-.028-.056-.089-.056-.182V82.382c0-.112.018-.182.056-.21.037-.037.107-.056.21-.056h1.288c.074 0 .13.014.168.042.037.019.084.08.14.182l4.396 7.546V82.34c0-.093.014-.154.042-.182.028-.028.088-.042.182-.042h1.162c.093 0 .149.014.168.042.028.028.042.089.042.182v10.094c0 .112-.019.182-.056.21-.028.037-.094.056-.196.056h-1.288Zm10.13-1.204a4.126 4.126 0 0 1-.853.532c-.318.15-.658.27-1.022.364a7.389 7.389 0 0 1-1.134.224 8.21 8.21 0 0 1-1.162.084h-1.708c-.16 0-.257-.019-.294-.056-.028-.037-.042-.126-.042-.266v-9.87c0-.177.014-.28.042-.308.037-.037.144-.056.322-.056h2.38c1.82 0 3.173.513 4.06 1.54.392.448.68.97.868 1.568.196.588.294 1.302.294 2.142 0 .868-.154 1.657-.462 2.366a4.328 4.328 0 0 1-1.288 1.736Zm-.615-6.762c-.598-.737-1.56-1.106-2.884-1.106h-1.092v7.574h.63c.54 0 1.05-.065 1.526-.196.476-.14.896-.36 1.26-.658.42-.317.742-.723.966-1.218.233-.504.35-1.101.35-1.792 0-.56-.061-1.055-.182-1.484a2.9 2.9 0 0 0-.574-1.12Zm10.983 7.392c-.345.27-.732.471-1.162.602-.42.14-.877.21-1.372.21-.97 0-1.81-.27-2.52-.812a3.105 3.105 0 0 1-1.022-1.33c-.205-.541-.308-1.162-.308-1.862V82.34a.27.27 0 0 1 .042-.14c.038-.047.08-.07.126-.07h1.246c.047 0 .084.019.112.056.038.037.056.08.056.126v6.622c0 .728.192 1.325.574 1.792.383.467.948.7 1.694.7.766 0 1.335-.229 1.708-.686.383-.457.574-1.06.574-1.806v-6.622c0-.047.014-.089.042-.126a.174.174 0 0 1 .126-.056h1.246c.047 0 .084.023.112.07a.224.224 0 0 1 .056.14v6.594c0 .69-.112 1.307-.336 1.848-.214.541-.546.99-.994 1.344Zm9.528.574a.65.65 0 0 1-.224-.028c-.037-.01-.079-.047-.126-.112l-2.142-4.144h-1.596v4.102c0 .121-.06.182-.182.182h-1.246c-.112 0-.168-.06-.168-.182V82.312a.15.15 0 0 1 .042-.112.174.174 0 0 1 .126-.056h2.828c1.036 0 1.858.252 2.464.756.607.504.91 1.288.91 2.352 0 .681-.149 1.26-.448 1.736a2.85 2.85 0 0 1-1.232 1.064l2.338 4.452c.075.13.019.196-.168.196h-1.176Zm-4.088-9.086v3.346h1.148c.616 0 1.106-.13 1.47-.392.364-.27.546-.714.546-1.33 0-.532-.144-.933-.434-1.204-.28-.28-.658-.42-1.134-.42h-1.596ZM63.375 92.7a.27.27 0 0 1-.14-.028c-.028-.01-.056-.047-.084-.112l-1.008-2.52H57.58l-1.008 2.52c-.018.065-.042.103-.07.112-.028.019-.074.028-.14.028h-1.288c-.168 0-.224-.065-.168-.196l4.088-10.206a.581.581 0 0 1 .056-.126c.019-.019.075-.028.168-.028h1.302c.084 0 .136.01.154.028.019.01.042.051.07.126l4.088 10.206c.047.13-.009.196-.168.196h-1.288Zm-5.222-4.13h3.402l-1.694-4.312-1.708 4.312Zm14.26 4.13a.28.28 0 0 1-.168-.042.676.676 0 0 1-.14-.182l-4.396-7.56v7.56c0 .093-.014.154-.042.182-.028.028-.088.042-.182.042h-1.162a.281.281 0 0 1-.168-.042c-.037-.028-.056-.089-.056-.182V82.382c0-.112.019-.182.056-.21.037-.037.108-.056.21-.056h1.288a.28.28 0 0 1 .168.042c.038.019.084.08.14.182l4.396 7.546V82.34c0-.093.014-.154.042-.182.028-.028.089-.042.182-.042h1.162c.094 0 .15.014.168.042.028.028.042.089.042.182v10.094c0 .112-.019.182-.056.21-.028.037-.093.056-.196.056h-1.288Zm11.152-.112c-.27.075-.597.145-.98.21a7.987 7.987 0 0 1-1.33.098c-.793 0-1.517-.13-2.17-.392a4.72 4.72 0 0 1-1.652-1.106 5.117 5.117 0 0 1-1.064-1.736c-.252-.672-.378-1.419-.378-2.24 0-.812.121-1.554.364-2.226a4.967 4.967 0 0 1 1.064-1.722 4.63 4.63 0 0 1 1.652-1.12c.653-.27 1.381-.406 2.184-.406.42 0 .83.023 1.232.07a5.27 5.27 0 0 1 1.092.21c.103.028.163.065.182.112.019.037.023.103.014.196l-.028 1.036c0 .15-.023.224-.07.224a.892.892 0 0 1-.238-.056 7.406 7.406 0 0 0-2.184-.322c-.579 0-1.097.098-1.554.294a3.29 3.29 0 0 0-1.148.826c-.308.355-.546.78-.714 1.274a5.158 5.158 0 0 0-.238 1.61c0 .579.089 1.115.266 1.61.177.485.425.91.742 1.274.327.355.71.635 1.148.84a3.52 3.52 0 0 0 1.484.308c.485 0 .896-.019 1.232-.056.345-.047.663-.121.952-.224.121-.047.2-.06.238-.042.037.019.056.06.056.126l.056.994c.01.103 0 .177-.028.224-.019.047-.08.084-.182.112Zm2.672.126c-.186 0-.298-.019-.336-.056-.037-.028-.056-.145-.056-.35v-9.786c0-.187.014-.294.042-.322.038-.037.145-.056.322-.056h4.97c.103 0 .164.019.182.056.019.028.028.084.028.168v1.036c0 .093-.014.159-.042.196-.028.028-.084.042-.168.042h-3.794v2.856h3.612c.14 0 .21.075.21.224v1.05c0 .159-.07.238-.21.238h-3.612v3.192h3.962c.131 0 .196.08.196.238v1.05c0 .15-.065.224-.196.224h-5.11ZM71.625 34.438l-3.5-3.5L70 29l-8-8-1.938 1.875-3.562-3.563 1.875-1.937c.958-.958 2.146-1.428 3.563-1.408 1.416.02 2.604.51 3.562 1.47l8.063 8.063c.958.958 1.437 2.135 1.437 3.53s-.48 2.572-1.438 3.532l-1.937 1.876Zm-30 30.062c-.958.958-2.135 1.438-3.53 1.438s-2.572-.48-3.532-1.438L26.5 56.437c-.958-.958-1.438-2.134-1.438-3.53 0-1.394.48-2.572 1.438-3.532l1.875-1.875 3.563 3.563L30 52.937 38.063 61l1.874-1.938 3.563 3.563-1.875 1.875Zm24.813-21L70 39.937 51.062 21 47.5 24.563 66.438 43.5ZM48.938 61l3.562-3.625L33.625 38.5 30 42.063 48.938 61Zm-.376-14.625 6.876-6.813-4-4-6.813 6.876 3.938 3.937ZM52.5 64.5c-.958.958-2.146 1.438-3.563 1.438-1.416 0-2.604-.48-3.562-1.438L26.5 45.625c-.958-.958-1.438-2.146-1.438-3.563 0-1.416.48-2.604 1.438-3.562l3.563-3.563c.958-.958 2.134-1.437 3.53-1.437 1.394 0 2.572.48 3.532 1.438l3.938 3.937L47.937 32 44 28.125c-.958-.958-1.438-2.146-1.438-3.563 0-1.416.48-2.604 1.438-3.562l3.563-3.563C48.52 16.48 49.697 16 51.094 16c1.397 0 2.573.48 3.53 1.438l18.938 18.937c.958.958 1.437 2.135 1.437 3.53s-.48 2.572-1.438 3.532L70 47c-.958.958-2.146 1.438-3.563 1.438-1.416 0-2.604-.48-3.562-1.438L59 43.062l-6.875 6.876 3.938 3.937c.958.958 1.437 2.136 1.437 3.532 0 1.397-.48 2.574-1.438 3.53L52.5 64.5Z"/>
</svg>
