<svg xmlns="http://www.w3.org/2000/svg" width="50" height="50" fill="none" viewBox="0 0 50 50">
  <path fill="#000" d="M33.333 17.417c.084.916-.458 1.708-1.125 1.75-.666.041-1.291-.667-1.375-1.584-.083-.916.459-1.708 1.125-1.75.667-.041 1.292.667 1.375 1.584Zm1.167-.75c-.459.041-.792.625-.75 1.291.041.667.458 1.25.916 1.209.459-.042.792-.625.75-1.292-.041-.667-.458-1.25-.916-1.208Zm1.791.958c-.333-.042-.624.375-.666.875-.042.5.25.958.583.958.334 0 .625-.375.667-.875.041-.5-.25-.958-.584-.958Zm1.5.708c-.291-.041-.624.292-.708.75A.75.75 0 0 0 37.5 20c.291.042.583-.292.666-.75a.792.792 0 0 0-.374-.917Zm1.25 1.042c-.25-.042-.5.208-.541.542a.583.583 0 0 0 .25.708c.25.042.458-.208.541-.542a.583.583 0 0 0-.25-.708ZM33.334 20c-.833 0-2.5.417-2.083 2.5.416 2.083 3.333 2.917 3.333 4.583 0 1.667-1.25 2.084-2.083 3.75-.834 1.667 0 2.917 1.25 3.334a2.833 2.833 0 0 0 3.333-1.667c.417-1.25-.25-1.75.417-3.75.416-1.25 1.25-1.667 1.666-4.167C39.75 21.208 36.25 20 33.334 20Zm-16.667-2.583c-.084.916.458 1.708 1.125 1.75.666.041 1.291-.667 1.375-1.584.083-.916-.459-1.708-1.125-1.75-.667-.041-1.292.667-1.375 1.584Zm-1.167-.75c.459.041.792.625.75 1.291-.041.667-.458 1.25-.916 1.209-.459-.042-.792-.625-.75-1.292.041-.667.458-1.25.916-1.208Zm-1.791.958c.333-.042.625.375.666.875.042.5-.25.958-.583.958-.333 0-.625-.375-.667-.875-.041-.5.25-.958.584-.958Zm-1.5.708c.291-.041.625.292.708.75A.75.75 0 0 1 12.5 20c-.291.042-.583-.292-.666-.75a.792.792 0 0 1 .375-.917Zm-1.25 1.042c.25-.042.5.208.541.542a.583.583 0 0 1-.25.708c-.25.042-.458-.208-.541-.542a.583.583 0 0 1 .25-.708Zm5.708.625c.833 0 2.5.417 2.083 2.5-.416 2.083-3.333 2.917-3.333 4.583 0 1.667 1.25 2.084 2.083 3.75.834 1.667 0 2.917-1.25 3.334a2.833 2.833 0 0 1-3.333-1.667c-.417-1.25.25-1.75-.417-3.75-.416-1.25-1.25-1.667-1.666-4.167C10.25 21.208 13.75 20 16.666 20Z"/>
</svg>
