<!-- This icon is provided by Iconify (https://iconify.design/) -->
<svg xmlns="http://www.w3.org/2000/svg" width="50" height="50" fill="none" viewBox="0 0 50 50">
  <g clip-path="url(#a)">
    <path fill="#000" d="M23.009 15.763c-2.461 3.738 4.412 6.518.534 7.918-3.878 1.401-5.743-1.701-7.69-5.655-1.949-3.953-.384-8.294 3.494-9.693 3.877-1.402 6.917 2.482 3.662 7.43ZM21.297 5.551c.008-1.093.874-1.62 1.935-1.613 1.06.006 1.917.544 1.907 1.636-.012 1.563-.88 2.326-1.94 2.32-1.06-.006-1.916-.78-1.902-2.343Zm-3.23.53c-.135-.777.41-1.234 1.166-1.33.754-.097 1.433.204 1.568.981.193 1.112-.323 1.737-1.078 1.833-.755.096-1.463-.372-1.656-1.484ZM15.693 7.43c-.218-.663.199-1.113.844-1.267.645-.155 1.273.043 1.49.707.312.948-.057 1.54-.703 1.694-.645.155-1.32-.186-1.63-1.134ZM14.411 9.3c-.248-.489.015-.87.49-1.047.476-.177.982-.082 1.23.407.355.7.145 1.186-.33 1.363-.474.177-1.034-.024-1.39-.723Zm-.784 1.626c-.198-.39.012-.696.393-.837.38-.142.783-.066.983.325.283.559.115.948-.265 1.09-.38.14-.827-.02-1.111-.578Zm13.94 12.77c1.613 4.063-5.74 5.712-2.231 7.7 3.51 1.987 6.01-.767 8.776-4.346s2.163-8.091-1.349-10.08c-3.51-1.987-7.333 1.351-5.197 6.727Zm3.878-9.766c.227-1.075-.51-1.73-1.555-1.892-1.044-.161-2.001.233-2.227 1.308-.324 1.539.364 2.425 1.409 2.586 1.044.161 2.05-.464 2.373-2.002Zm3.06 1.03c.3-.742-.137-1.278-.859-1.491-.721-.214-1.452-.025-1.752.718-.429 1.061-.056 1.757.665 1.97.721.213 1.518-.135 1.946-1.197Zm2.045 1.7c.356-.617.043-1.125-.556-1.378-.601-.254-1.261-.159-1.618.46-.51.883-.274 1.522.326 1.776.6.254 1.337.026 1.848-.858Zm.856 2.04c.35-.44.173-.858-.257-1.106-.428-.249-.946-.235-1.296.206-.499.63-.397 1.143.032 1.392.428.248 1.022.14 1.521-.491Zm.421 1.722c.28-.352.137-.686-.205-.884-.343-.2-.756-.188-1.036.165-.4.504-.316.912.025 1.111.342.2.817.112 1.216-.392ZM9.107 45.338v-9.373h6.032v1.404h-4.368v2.678h4.095v1.404h-4.095v3.887H9.107Zm11.28-9.516c.53 0 1.032.078 1.509.234a3.273 3.273 0 0 1 2.132 1.963c.216.511.325 1.131.325 1.859v1.547c0 .737-.109 1.365-.325 1.885a3.273 3.273 0 0 1-.858 1.248c-.356.32-.776.555-1.261.702a5.124 5.124 0 0 1-1.521.221 5.254 5.254 0 0 1-1.534-.221 3.404 3.404 0 0 1-1.261-.702c-.355-.32-.642-.737-.858-1.248-.208-.52-.312-1.148-.312-1.885v-1.547c0-.728.104-1.348.312-1.859.216-.511.507-.927.87-1.248a3.31 3.31 0 0 1 1.262-.715 4.94 4.94 0 0 1 1.52-.234Zm0 8.138c.322 0 .62-.039.898-.117.277-.087.52-.234.728-.442.208-.208.368-.49.48-.845.122-.355.183-.802.183-1.339v-1.131c0-.537-.06-.984-.182-1.339-.113-.355-.273-.637-.481-.845a1.645 1.645 0 0 0-.728-.429 2.99 2.99 0 0 0-.897-.13c-.312 0-.607.043-.884.13-.277.078-.52.221-.728.429-.208.208-.373.49-.494.845-.122.355-.182.802-.182 1.339v1.131c0 .537.06.984.182 1.339.121.355.286.637.494.845.208.208.45.355.728.442.277.078.572.117.884.117Zm9.457-8.138c.529 0 1.032.078 1.508.234a3.273 3.273 0 0 1 2.132 1.963c.217.511.325 1.131.325 1.859v1.547c0 .737-.108 1.365-.325 1.885a3.273 3.273 0 0 1-.858 1.248c-.355.32-.775.555-1.26.702a5.124 5.124 0 0 1-1.522.221 5.253 5.253 0 0 1-1.534-.221 3.404 3.404 0 0 1-1.26-.702c-.356-.32-.642-.737-.859-1.248-.208-.52-.312-1.148-.312-1.885v-1.547c0-.728.104-1.348.312-1.859.217-.511.507-.927.871-1.248.364-.33.785-.568 1.261-.715a4.94 4.94 0 0 1 1.521-.234Zm0 8.138c.32 0 .62-.039.897-.117.278-.087.52-.234.728-.442.208-.208.369-.49.481-.845.122-.355.182-.802.182-1.339v-1.131c0-.537-.06-.984-.182-1.339-.112-.355-.273-.637-.48-.845a1.645 1.645 0 0 0-.729-.429 2.992 2.992 0 0 0-.897-.13 2.94 2.94 0 0 0-.884.13c-.277.078-.52.221-.728.429-.208.208-.372.49-.494.845-.121.355-.182.802-.182 1.339v1.131c0 .537.06.984.182 1.339s.286.637.494.845c.208.208.45.355.728.442.278.078.572.117.884.117Zm11.968-7.995v1.404H39.07v7.969h-1.664v-7.969H34.65v-1.404h7.163Z"/>
  </g>
  <defs>
    <clipPath id="a">
      <path fill="#fff" d="M0 0h50v50H0z"/>
    </clipPath>
  </defs>
</svg>
