<svg xmlns="http://www.w3.org/2000/svg" width="30" height="30" fill="none" viewBox="0 0 30 30">
  <g clip-path="url(#a)">
    <path fill="#000" d="M12.009 12.763c-2.461 3.738 4.412 6.518.534 7.918-3.878 1.401-5.743-1.701-7.69-5.655-1.949-3.953-.384-8.294 3.494-9.693 3.877-1.402 6.917 2.482 3.662 7.43ZM10.297 2.551c.008-1.093.874-1.62 1.935-1.613 1.06.006 1.917.544 1.907 1.636-.012 1.563-.88 2.326-1.94 2.32-1.06-.006-1.916-.78-1.902-2.343Zm-3.23.53c-.135-.777.41-1.234 1.166-1.33.754-.097 1.433.204 1.568.981.193 1.112-.324 1.737-1.078 1.833-.755.096-1.463-.372-1.656-1.484ZM4.693 4.43c-.218-.663.199-1.113.844-1.267.645-.155 1.273.043 1.49.707.312.948-.057 1.54-.702 1.694-.645.155-1.321-.186-1.632-1.134ZM3.411 6.3c-.248-.489.015-.87.49-1.047.476-.177.982-.082 1.23.407.355.7.146 1.186-.33 1.363C4.327 7.2 3.767 7 3.411 6.3Zm-.784 1.626c-.198-.39.012-.695.392-.837.38-.142.784-.066.984.325.283.559.115.948-.265 1.09-.38.14-.827-.02-1.111-.578Zm13.94 12.77c1.613 4.063-5.74 5.712-2.231 7.7 3.51 1.988 6.01-.767 8.776-4.346s2.163-8.091-1.348-10.08c-3.51-1.987-7.334 1.351-5.198 6.727Zm3.878-9.766c.227-1.075-.51-1.73-1.555-1.892-1.044-.161-2.001.233-2.227 1.308-.324 1.539.364 2.425 1.409 2.586 1.044.161 2.05-.464 2.373-2.002Zm3.06 1.03c.3-.742-.137-1.278-.859-1.491-.721-.214-1.451-.025-1.752.718-.429 1.061-.056 1.757.665 1.97.721.213 1.518-.135 1.946-1.197Zm2.045 1.7c.356-.617.043-1.125-.556-1.378-.601-.254-1.261-.159-1.618.46-.51.883-.274 1.522.326 1.776.6.254 1.337.025 1.848-.858Zm.856 2.04c.35-.44.173-.858-.257-1.106-.428-.249-.946-.235-1.296.206-.499.63-.397 1.143.032 1.392.428.248 1.022.14 1.521-.491Zm.421 1.722c.28-.352.137-.686-.205-.884-.343-.2-.756-.188-1.036.165-.4.504-.316.912.025 1.111.342.2.817.112 1.216-.392Z"/>
  </g>
  <defs>
    <clipPath id="a">
      <path fill="#fff" d="M0 0h30v30H0z"/>
    </clipPath>
  </defs>
</svg>
