<svg xmlns="http://www.w3.org/2000/svg" width="50" height="50" fill="none" viewBox="0 0 50 50">
  <g clip-path="url(#a)">
    <path fill="#000" d="M13.94 41.139h-3.886v4.199H8.39v-9.373h1.664v3.796h3.887v-3.796h1.664v9.373H13.94v-4.199Zm7.495-5.317c.529 0 1.032.078 1.508.234a3.273 3.273 0 0 1 2.132 1.963c.217.511.325 1.131.325 1.859v1.547c0 .737-.108 1.365-.325 1.885a3.273 3.273 0 0 1-.858 1.248c-.355.32-.775.555-1.26.702a5.124 5.124 0 0 1-1.522.221 5.253 5.253 0 0 1-1.534-.221 3.404 3.404 0 0 1-1.26-.702c-.356-.32-.642-.737-.859-1.248-.208-.52-.312-1.148-.312-1.885v-1.547c0-.728.104-1.348.312-1.859.217-.511.507-.927.871-1.248.364-.33.785-.568 1.261-.715a4.94 4.94 0 0 1 1.521-.234Zm0 8.138c.32 0 .62-.039.897-.117.277-.087.52-.234.728-.442.208-.208.369-.49.481-.845.122-.355.182-.802.182-1.339v-1.131c0-.537-.06-.984-.182-1.339-.113-.355-.273-.637-.48-.845a1.645 1.645 0 0 0-.729-.429 2.992 2.992 0 0 0-.897-.13c-.312 0-.607.043-.884.13-.277.078-.52.221-.728.429-.208.208-.372.49-.494.845-.121.355-.182.802-.182 1.339v1.131c0 .537.06.984.182 1.339s.286.637.494.845c.208.208.45.355.728.442.277.078.572.117.884.117Zm7.494-7.995v7.969h4.277v1.404h-5.941v-9.373h1.664Zm8.948 0c1.395 0 2.422.347 3.08 1.04.66.685.989 1.677.989 2.977v1.339c0 .65-.074 1.226-.221 1.729a2.97 2.97 0 0 1-.715 1.248c-.321.338-.737.594-1.248.767-.512.182-1.131.273-1.86.273h-3.288v-9.373h3.263Zm-1.612 7.969h1.39a3.9 3.9 0 0 0 1.106-.143c.329-.095.602-.247.819-.455a1.91 1.91 0 0 0 .507-.819c.121-.347.182-.767.182-1.261v-1.209c0-.988-.221-1.681-.663-2.08-.434-.399-1.084-.598-1.95-.598h-1.391v6.565Z"/>
    <path fill="#000" fill-rule="evenodd" d="M32.111 8.889 32 9h-.667l-.11.111h-.445l-.111.111h-.445l-.11.111h-.445l-.111.111h-.334l-.11.112h-.445l-.111.11h-.334l-.11.112h-.334l-.111.11h-.334l-.11.112h-.445l-.111.111h-.334l-.11.111h-.445l-.111.111h-.334l-.11.111h-.556l-.111.112H22.11l-.11-.111h-.444l-.111-.112h-.334l-.111-.11h-.333l-.111-.112h-.223l-.11-.111H20l-.111-.111h-.222l-.111-.111h-.223l-.11-.111H19l-.111-.111h-.556l-.11-.112H17l-.111.112H16l-.111.11h-.444l-.112.112h-.222l-.111.11h-.111l-.111.112h-.222l-.111.111h-.112l-.222.222H14l-.111.111h-.111l-.334.334h-.11l-1 1v.11l-.223.223v.111l-.222.223v.11l-.111.112v.11l-.111.112v.222l-.111.111v.111l-.111.111v.445l-.112.111v1.556l.111.11v.445l.112.111v.334l.11.11v.223l.112.111v.111l.333.334v.11l.556.556h.11l.112.111H13l.111.111h.111l.111.112h.111l.112.11h.222l.11.112h.223l.111.11h.223l.11.112h.112l.11.111h.112l.111.111h.111l.222.222v.112l.111.11v.112l.112.11v.334l.11.111v.334l.112.11v.223l.11.111v.111l.445.445h.112l.333.333h.11l.223.222h.111l.334.334h.11l.223.222H18l.333.333h.112l.555.556h.111l.778.777H20l.445.445v.11l.444.445v.334l-.111.11v.334l.11.111v.223l.112.11v.112l.111.11v.112l.334.333v.111l.555.556h.111l.222.222h.112l.222.222h.222l.111.112h.222l.111.11h.445l.11.112H26l.111-.111h.556l.11-.111h.334l.111-.112h.223l.11-.11h.223l.11-.112h.223l.111-.111h.111l.112-.111h.11l.112-.111h.11l.112-.111H29l.222-.223h.111l.112-.11h.11l.223-.223h.11l.223-.222h.111l.223-.222h.11l.223-.223h.11l.223-.222h.111l.445-.444h.11l.445-.445h.111l1.778-1.777v-.111l.222-.223v-.11l.223-.223v-.111l.11-.111v-.111l.112-.111v-.112l.11-.11V22l.112-.111v-.667l-.111-.11v-.334l-.111-.111v-.111l-.111-.111v-.223l-.111-.11v-.445l-.111-.111v-.445l.11-.111v-.111l.223-.222v-.111l.333-.334h.111l.667-.666H36l1.778-1.778v-.111l.222-.223v-.11l.111-.112v-.11l.111-.112v-.111l.111-.111v-.111l.111-.111v-.223l.112-.11v-.445l.11-.111v-1.445l-.11-.11v-.445l-.111-.111v-.223l-.112-.11V11l-.11-.111v-.111l-.112-.111v-.111L38 10.445v-.112l-.111-.11v-.112l-.556-.555h-.11L37 9.333h-.111l-.111-.11h-.222l-.111-.112h-.112L36.223 9h-.556l-.111-.111H32.11Zm-8 6.556.111-.112h1.111l.112.111h.222l.11.112H26l.111.11h.111l.223.223h.11l.667.667v.11l.223.223V17l.11.111v.222l.112.112v.222l.11.11v1.112l-.11.111v.222l-.111.111v.223l-.111.11v.112l-.223.222v.111l-.666.667h-.111l-.223.222h-.11l-.112.111h-.222l-.111.111h-.223l-.11.111h-1.112l-.11-.11h-.223l-.111-.112h-.222L23.445 21h-.112l-.222-.222H23l-.667-.667V20l-.222-.222v-.111L22 19.556v-.223l-.111-.11V19l-.111-.111v-1.111l.11-.111v-.223l.112-.11v-.223l.111-.111v-.111l.222-.222v-.111l.667-.667h.111l.222-.222h.112l.11-.111h.223l.11-.111h.223Z" clip-rule="evenodd"/>
  </g>
  <defs>
    <clipPath id="a">
      <path fill="#fff" d="M0 0h50v50H0z"/>
    </clipPath>
  </defs>
</svg>
