<svg xmlns="http://www.w3.org/2000/svg" width="30" height="30" fill="none" viewBox="0 0 30 30">
  <g clip-path="url(#a)">
    <path fill="#000" fill-rule="evenodd" d="M22.111 4.889 22 5h-.667l-.11.111h-.445l-.111.111h-.445l-.111.111h-.444l-.112.111h-.333l-.111.112h-.444l-.112.11h-.333l-.111.112h-.333l-.111.11h-.334l-.11.112h-.445l-.111.111h-.334l-.11.111h-.445l-.111.111h-.334l-.11.111h-.556l-.111.112H12.11L12 6.444h-.444l-.112-.11h-.333L11 6.221h-.333l-.111-.11h-.223L10.223 6H10l-.111-.111h-.222l-.112-.111h-.222l-.11-.111H9l-.111-.111h-.556l-.11-.112H7l-.111.112h-.89l-.11.11h-.445l-.11.112H5.11l-.11.11h-.111L4.778 6h-.223l-.11.111h-.112l-.222.222H4l-.111.111h-.111l-.334.334h-.11l-1 1v.11l-.223.223v.111l-.222.222v.112l-.111.11v.112l-.111.11v.223l-.112.111v.111l-.11.111v.445L1.332 10v1.556l.111.11v.445l.111.111v.334l.112.11v.223l.11.111v.111l.334.333v.112l.556.555h.11l.112.111h.11l.112.111h.111l.111.111h.111l.111.112h.223l.11.11h.223l.111.112h.222l.111.11h.112l.11.112h.112l.11.111h.112l.222.222v.111l.111.112v.11l.111.112v.333l.112.111v.334l.11.11v.223L5.89 17v.111l.444.445h.111l.334.333h.11l.223.222h.111l.333.334h.112l.222.222H8l.334.333h.111l.556.556h.111l.778.777H10l.445.445v.11l.445.445v.334l-.111.11v.334l.11.111v.223l.112.11v.112l.111.11v.112l.333.333v.111l.556.556h.111l.222.222h.111l.223.222h.222l.11.112h.223l.111.11h.445l.11.112H16l.111-.111h.556l.11-.111h.334l.111-.112h.222l.111-.11h.223l.11-.112h.223l.111-.111h.111l.111-.111h.111l.112-.111h.11l.112-.111h.11l.223-.223h.111l.111-.11h.111l.223-.223h.11l.223-.222h.111l.222-.222h.111l.223-.223h.11l.223-.222h.111l.445-.444h.11l.445-.445h.111l1.778-1.777v-.111l.222-.223v-.11l.223-.223v-.111l.11-.111v-.111l.112-.111v-.112l.11-.11V18l.112-.111v-.667l-.111-.11v-.334l-.111-.111v-.111l-.111-.111v-.223l-.112-.11v-.445l-.11-.111v-.445l.11-.111v-.111l.223-.222v-.111l.333-.334h.111l.667-.666h.11l1.779-1.778v-.111l.222-.223v-.11l.111-.112v-.11l.111-.112v-.111l.111-.111v-.111l.111-.111v-.223l.111-.11v-.445l.112-.111V8.222l-.112-.11v-.445l-.11-.111v-.223l-.112-.11V7l-.11-.111v-.111l-.112-.111v-.111L28 6.444v-.11l-.111-.112v-.11l-.556-.556h-.11L27 5.333h-.111l-.111-.11h-.223l-.11-.112h-.112L26.223 5h-.556l-.112-.111h-3.444Zm-8 6.555.111-.11h1.111l.111.11h.223l.11.112H16l.111.11h.111l.222.223h.111l.667.667v.11l.222.223V13l.111.111v.222l.112.111v.223l.11.11v1.112l-.11.111v.222l-.112.111v.223l-.11.11v.112l-.223.222v.111l-.667.667h-.11l-.223.222h-.111l-.111.111h-.222l-.111.111h-.223l-.11.111h-1.112l-.111-.11h-.222l-.111-.112h-.223l-.11-.111h-.112l-.222-.222H13l-.667-.667V16l-.222-.222v-.111L12 15.556v-.223l-.111-.11V15l-.111-.111v-1.111l.11-.111v-.223l.112-.11v-.223l.11-.111v-.111l.222-.222v-.111l.667-.667h.111l.222-.222h.111l.111-.111h.223l.11-.111h.223Z" clip-rule="evenodd"/>
  </g>
  <defs>
    <clipPath id="a">
      <path fill="#fff" d="M0 0h30v30H0z"/>
    </clipPath>
  </defs>
</svg>
