<!-- This icon is provided by Iconify (https://iconify.design/) -->
<svg xmlns="http://www.w3.org/2000/svg" width="40" height="40" fill="none" viewBox="0 0 40 40">
  <path stroke="#000" stroke-linecap="round" stroke-linejoin="round" stroke-width="1.5" d="M10.953 18.686v-7.5c0-3.688 5.954-3.916 5.954 0"/>
  <path stroke="#000" stroke-linecap="round" stroke-linejoin="round" stroke-width="1.5" d="M16.905 16.667V7.853c0-3.688 5.953-3.916 5.953 0v3m.002 7.084v-6.75c0-3.689 6.245-3.917 6.245 0v10.48"/>
  <path stroke="#000" stroke-linecap="round" stroke-linejoin="round" stroke-width="1.5" d="M10.953 15.52c0-3.917-5.953-3.688-5.953 0v7.333c0 11.405 16.332 15.964 23.797 8.49l5.358-5.4c2.482-2.77-.895-8.443-5.05-4.276l-1.667 1.666"/>
  <path fill="#000" d="M16.296 31V20.818h1.232v9.088h4.733V31h-5.965Z"/>
</svg>
