<!-- This icon is provided by Iconify (https://iconify.design/) -->
<svg xmlns="http://www.w3.org/2000/svg" width="50" height="50" fill="none" viewBox="0 0 50 50">
  <g clip-path="url(#a)">
    <path stroke="#000" stroke-linecap="round" stroke-linejoin="round" stroke-width="2" d="M35.5 18.833v-3.5A2.333 2.333 0 0 0 33.167 13h-7m0 0 3.5 3.5m-3.5-3.5 3.5-3.5M14.5 21.167v3.5A2.333 2.333 0 0 0 16.833 27h7m0 0-3.5-3.5m3.5 3.5-3.5 3.5M14.5 10.667A1.167 1.167 0 0 1 15.667 9.5h4.666a1.167 1.167 0 0 1 1.167 1.167v4.666a1.167 1.167 0 0 1-1.167 1.167h-4.666a1.167 1.167 0 0 1-1.167-1.167v-4.666Zm14 14a1.167 1.167 0 0 1 1.167-1.167h4.666a1.167 1.167 0 0 1 1.167 1.167v4.666a1.167 1.167 0 0 1-1.167 1.167h-4.666a1.167 1.167 0 0 1-1.167-1.167v-4.666Z"/>
    <path fill="#000" d="M4.398 42.107H2.78v3.179H1.373v-7.931h3.003a3.3 3.3 0 0 1 1.089.165c.322.11.59.26.803.451.22.19.385.422.495.693.117.264.176.554.176.869v.407c0 .418-.103.796-.308 1.133-.206.33-.514.587-.924.77.264.58.52 1.155.77 1.727l.78 1.716H5.73l-1.331-3.179ZM2.78 38.532v2.398h1.298c.542 0 .92-.095 1.133-.286a.93.93 0 0 0 .33-.737v-.33a.975.975 0 0 0-.308-.748c-.206-.198-.55-.297-1.034-.297H2.78Zm11.058-1.177v1.166h-3.707v2.134h3.476v1.144h-3.476v2.321h3.784v1.166H8.733v-7.931h5.104Zm1.688 0h2.992c.477 0 .884.059 1.22.176a2.2 2.2 0 0 1 .848.473c.22.198.381.436.484.715.11.279.165.58.165.902v.231c0 .323-.055.63-.165.924a2.09 2.09 0 0 1-.506.759 2.62 2.62 0 0 1-.847.517c-.337.125-.737.187-1.2.187h-1.583v3.047h-1.408v-7.931Zm1.408 1.177v2.519h1.397c.462 0 .825-.088 1.089-.264.264-.176.396-.495.396-.957v-.198c0-.22-.033-.4-.1-.539a.784.784 0 0 0-.285-.33.983.983 0 0 0-.43-.176 2.586 2.586 0 0 0-.55-.055h-1.517Zm7.093-1.177v6.743h3.619v1.188H22.62v-7.931h1.408Zm11.327 7.931h-1.53l-.77-2.178h-2.672l-.781 2.178H28.16l2.948-7.931h1.265l2.98 7.931Zm-4.565-3.355h1.859l-.54-1.617a29.464 29.464 0 0 1-.23-.66c-.052-.183-.107-.37-.165-.561a6.03 6.03 0 0 1-.088.297 5.369 5.369 0 0 1-.176.561c-.03.103-.07.224-.121.363l-.54 1.617Zm8.612-4.697a4.98 4.98 0 0 1 1.474.198c.432.132.85.36 1.254.682l-.76 1.078c-.322-.271-.641-.447-.956-.528a3.75 3.75 0 0 0-1.012-.132c-.235 0-.466.037-.693.11-.228.066-.43.19-.605.374-.176.183-.32.433-.43.748-.11.315-.164.719-.164 1.21v.814c0 .418.051.774.154 1.067.102.293.238.532.407.715.176.183.377.319.605.407.227.08.465.121.715.121.366 0 .74-.055 1.122-.165.388-.117.74-.337 1.056-.66l.748 1.078a3.117 3.117 0 0 1-.748.561 4.212 4.212 0 0 1-.77.308c-.257.08-.51.132-.76.154a8.004 8.004 0 0 1-.703.033c-.433 0-.847-.062-1.243-.187a2.806 2.806 0 0 1-1.034-.594 2.936 2.936 0 0 1-.704-1.034c-.176-.418-.264-.924-.264-1.518v-1.419c0-.594.084-1.104.253-1.529.176-.433.414-.788.715-1.067.3-.286.649-.495 1.045-.627a4.149 4.149 0 0 1 1.298-.198Zm9.419.121v1.166h-3.707v2.134h3.476v1.144h-3.476v2.321h3.784v1.166h-5.181v-7.931h5.104Z"/>
  </g>
  <defs>
    <clipPath id="a">
      <path fill="#fff" d="M0 0h50v50H0z"/>
    </clipPath>
  </defs>
</svg>
