<svg xmlns="http://www.w3.org/2000/svg" width="50" height="50" fill="none" viewBox="0 0 50 50">
  <path fill="#000" d="M24.87 24.5a.938.938 0 0 1-.938.938c-4.74 0-8.62-3.757-8.62-8.438 0-4.681 3.88-8.438 8.62-8.438 3.882 0 7.187 2.52 8.257 6.002l.754-1.275a.938.938 0 1 1 1.614.954l-2.037 3.443a.938.938 0 0 1-1.268.34l-3.527-1.988a.936.936 0 0 1-.118-1.556.937.937 0 0 1 1.04-.078l1.84 1.037c-.718-2.86-3.364-5.004-6.553-5.004-3.748 0-6.747 2.96-6.747 6.563 0 3.604 3 6.563 6.745 6.563a.938.938 0 0 1 .938.937ZM9.09 41.581H7.18v3.757H5.514v-9.373h3.55a3.9 3.9 0 0 1 1.286.195c.381.13.698.308.95.533.26.225.454.498.584.819a2.5 2.5 0 0 1 .208 1.027v.481c0 .494-.121.94-.364 1.339-.243.39-.607.693-1.092.91.312.685.615 1.365.91 2.041l.923 2.028h-1.807L9.09 41.581Zm-1.91-4.225v2.834h1.533c.641 0 1.088-.113 1.34-.338a1.1 1.1 0 0 0 .39-.871v-.39c0-.364-.122-.659-.365-.884-.243-.234-.65-.351-1.222-.351H7.18Zm13.05-1.391v1.378h-4.382v2.522h4.108v1.352h-4.108v2.743h4.472v1.378h-6.123v-9.373h6.032Zm8.216 0v1.404h-2.743v7.969H24.04v-7.969h-2.756v-1.404h7.163Zm4.862 5.616h-1.91v3.757h-1.665v-9.373h3.55a3.9 3.9 0 0 1 1.286.195c.381.13.698.308.95.533.26.225.454.498.584.819.139.312.208.654.208 1.027v.481c0 .494-.121.94-.364 1.339-.243.39-.607.693-1.092.91.312.685.615 1.365.91 2.041l.923 2.028h-1.807l-1.573-3.757Zm-1.91-4.225v2.834h1.533c.641 0 1.088-.113 1.34-.338a1.1 1.1 0 0 0 .39-.871v-.39c0-.364-.122-.659-.365-.884-.243-.234-.65-.351-1.222-.351h-1.677Zm10.754 4.277v3.705h-1.664v-3.705l-3.21-5.668h1.858l2.223 4.134 2.184-4.134h1.82l-3.21 5.668Z"/>
</svg>
