<!-- This icon is provided by Iconify (https://iconify.design/) -->
<svg xmlns="http://www.w3.org/2000/svg" width="40" height="40" fill="none" viewBox="0 0 40 40">
  <path stroke="#000" stroke-linecap="round" stroke-linejoin="round" stroke-width="1.5" d="M29.047 18.686v-7.5c0-3.688-5.954-3.916-5.954 0"/>
  <path stroke="#000" stroke-linecap="round" stroke-linejoin="round" stroke-width="1.5" d="M23.095 16.667V7.853c0-3.688-5.953-3.916-5.953 0v3m-.002 7.084v-6.75c0-3.689-6.245-3.917-6.245 0v10.48"/>
  <path stroke="#000" stroke-linecap="round" stroke-linejoin="round" stroke-width="1.5" d="M29.047 15.52c0-3.917 5.953-3.688 5.953 0v7.333c0 11.405-16.332 15.964-23.797 8.49l-5.358-5.4c-2.482-2.77.895-8.443 5.05-4.276l1.667 1.666"/>
  <path fill="#000" d="M17.755 31V20.818h3.44c.796 0 1.45.136 1.96.408.51.268.888.638 1.133 1.108.245.471.368 1.006.368 1.606 0 .6-.123 1.132-.368 1.596-.245.464-.621.829-1.128 1.094-.508.262-1.155.393-1.944.393h-2.784v-1.114h2.744c.543 0 .98-.08 1.312-.238.335-.16.577-.385.726-.677.153-.295.229-.646.229-1.054 0-.407-.076-.764-.229-1.069a1.559 1.559 0 0 0-.73-.705c-.335-.17-.778-.254-1.328-.254h-2.168V31h-1.233Zm4.793-4.574L25.054 31h-1.432l-2.466-4.574h1.392Z"/>
</svg>
