<svg xmlns="http://www.w3.org/2000/svg" width="50" height="50" fill="none" viewBox="0 0 50 50">
  <path fill="#000" d="M11.412 43.986c.598 0 1.032-.104 1.3-.312.27-.217.404-.485.404-.806v-.143c0-.381-.143-.663-.43-.845-.277-.19-.684-.347-1.222-.468-.39-.087-.784-.178-1.183-.273a3.868 3.868 0 0 1-1.066-.429 2.318 2.318 0 0 1-.767-.767c-.199-.33-.299-.767-.299-1.313v-.169c0-.286.057-.58.17-.884a2.33 2.33 0 0 1 .558-.858c.26-.26.603-.472 1.027-.637.434-.173.967-.26 1.6-.26.52 0 1.018.056 1.495.169.476.104.953.308 1.43.611l-.78 1.287c-.382-.243-.737-.399-1.066-.468a4.56 4.56 0 0 0-1.053-.117c-.295 0-.55.035-.768.104-.216.07-.398.16-.546.273a1.208 1.208 0 0 0-.312.364.822.822 0 0 0-.104.39v.156c0 .225.052.407.156.546.113.139.26.256.443.351a3.4 3.4 0 0 0 .637.221c.25.052.515.108.793.169.554.121 1.018.273 1.39.455.382.173.685.373.91.598.235.225.4.477.495.754.103.269.155.563.155.884v.169c0 .52-.095.958-.286 1.313a2.286 2.286 0 0 1-.754.845c-.32.208-.689.355-1.105.442a5.805 5.805 0 0 1-2.3.052 5.615 5.615 0 0 1-1.716-.559 4.79 4.79 0 0 1-.638-.429l.806-1.326c.286.243.655.455 1.105.637.451.182.958.273 1.521.273Zm8.784-8.164c.659 0 1.24.078 1.742.234a4.459 4.459 0 0 1 1.482.806l-.897 1.274c-.381-.32-.758-.529-1.13-.624a4.433 4.433 0 0 0-1.197-.156c-.277 0-.55.043-.819.13a1.599 1.599 0 0 0-.715.442c-.208.217-.377.511-.507.884s-.195.85-.195 1.43v.962c0 .494.06.914.182 1.261.122.347.282.628.481.845.208.217.447.377.715.481.269.095.55.143.845.143a4.77 4.77 0 0 0 1.326-.195c.46-.139.875-.399 1.248-.78l.884 1.274a3.69 3.69 0 0 1-.884.663 4.99 4.99 0 0 1-.91.364 4.231 4.231 0 0 1-.897.182 9.493 9.493 0 0 1-.832.039 4.864 4.864 0 0 1-1.469-.221 3.312 3.312 0 0 1-1.222-.702 3.47 3.47 0 0 1-.832-1.222c-.208-.494-.312-1.092-.312-1.794v-1.677c0-.702.1-1.304.3-1.807a3.47 3.47 0 0 1 .844-1.261 3.27 3.27 0 0 1 1.235-.741 4.902 4.902 0 0 1 1.534-.234Zm12.765 9.516h-1.807l-.91-2.574h-3.16l-.922 2.574h-1.703l3.484-9.373h1.495l3.523 9.373Zm-5.395-3.965h2.197l-.637-1.911a34.097 34.097 0 0 1-.273-.78c-.06-.217-.126-.438-.195-.663-.035.13-.07.247-.104.351a6.292 6.292 0 0 1-.091.325 21.3 21.3 0 0 1-.117.338 6.19 6.19 0 0 1-.143.429l-.637 1.911Zm6.787-5.408h1.911l3.198 5.681c.096.173.2.39.312.65.122.251.217.529.286.832v-7.163h1.56v9.373h-1.91l-3.212-5.694a6.146 6.146 0 0 1-.338-.676 4.41 4.41 0 0 1-.247-.767v7.137h-1.56v-9.373Z"/>
  <path stroke="#000" stroke-linecap="round" stroke-linejoin="round" stroke-width="1.5" d="M13.125 12.234c.13-2.625.519-4.263 1.684-5.425 1.162-1.165 2.8-1.554 5.425-1.684m16.641 7.109c-.13-2.625-.519-4.263-1.684-5.425-1.162-1.165-2.8-1.554-5.425-1.684m0 23.75c2.625-.13 4.263-.519 5.425-1.684 1.165-1.162 1.554-2.8 1.684-5.425m-16.641 7.109c-2.625-.13-4.263-.519-5.425-1.684-1.165-1.162-1.554-2.8-1.684-5.425m0-4.766h23.75M17.5 17A7.5 7.5 0 0 1 25 9.5a3.75 3.75 0 0 0 6 3 7.463 7.463 0 0 1 1.5 4.5m-1.004 3.75a7.501 7.501 0 0 1-12.992 0"/>
</svg>
