<!-- This icon is provided by Iconify (https://iconify.design/) -->
<svg xmlns="http://www.w3.org/2000/svg" width="50" height="50" fill="none" viewBox="0 0 50 50">
  <path fill="#000" d="M8.931 43.986c.598 0 1.032-.104 1.3-.312.269-.217.403-.485.403-.806v-.143c0-.381-.143-.663-.429-.845-.277-.19-.684-.347-1.222-.468-.39-.087-.784-.178-1.183-.273a3.868 3.868 0 0 1-1.066-.429 2.318 2.318 0 0 1-.767-.767c-.199-.33-.299-.767-.299-1.313v-.169c0-.286.057-.58.17-.884.112-.312.298-.598.558-.858.26-.26.603-.472 1.027-.637.434-.173.967-.26 1.6-.26.52 0 1.018.056 1.494.169.477.104.954.308 1.43.611l-.78 1.287c-.381-.243-.736-.399-1.066-.468a4.558 4.558 0 0 0-1.053-.117c-.294 0-.55.035-.767.104-.216.07-.398.16-.546.273a1.208 1.208 0 0 0-.312.364.822.822 0 0 0-.104.39v.156c0 .225.052.407.156.546.113.139.26.256.442.351.182.087.395.16.637.221.252.052.516.108.793.169.555.121 1.019.273 1.391.455.382.173.685.373.91.598a1.9 1.9 0 0 1 .494.754c.104.269.156.563.156.884v.169c0 .52-.095.958-.286 1.313a2.285 2.285 0 0 1-.754.845c-.32.208-.689.355-1.105.442a5.804 5.804 0 0 1-2.3.052 5.615 5.615 0 0 1-1.716-.559 4.79 4.79 0 0 1-.638-.429l.806-1.326c.286.243.655.455 1.105.637.451.182.958.273 1.521.273Zm11.449-8.021v1.404h-2.743v7.969h-1.664v-7.969h-2.756v-1.404h7.163Zm8.322 9.373h-1.807l-.91-2.574h-3.159l-.923 2.574H20.2l3.484-9.373h1.495l3.523 9.373Zm-5.395-3.965h2.197l-.637-1.911a34.097 34.097 0 0 1-.273-.78c-.06-.217-.125-.438-.195-.663-.034.13-.069.247-.104.351a6.292 6.292 0 0 1-.09.325 14.74 14.74 0 0 1-.118.338 6.19 6.19 0 0 1-.143.429l-.637 1.911Zm10.363.208h-1.911v3.757h-1.664v-9.373h3.549a3.9 3.9 0 0 1 1.287.195c.381.13.698.308.949.533.26.225.455.498.585.819a2.5 2.5 0 0 1 .208 1.027v.481c0 .494-.121.94-.364 1.339-.243.39-.607.693-1.092.91.312.685.615 1.365.91 2.041.303.667.61 1.343.923 2.028h-1.807l-1.573-3.757Zm-1.911-4.225v2.834h1.534c.641 0 1.088-.113 1.339-.338a1.1 1.1 0 0 0 .39-.871v-.39c0-.364-.121-.659-.364-.884-.243-.234-.65-.351-1.222-.351h-1.677Zm13.258-1.391v1.404h-2.743v7.969H40.61v-7.969h-2.756v-1.404h7.163ZM23.48 28.26 15 22.96 25.598 6l8.48 5.299z"/>
</svg>
