<!-- This icon is provided by Iconify (https://iconify.design/) -->
<svg xmlns="http://www.w3.org/2000/svg" width="50" height="50" fill="none" viewBox="0 0 50 50">
  <path fill="#000" d="M15 9.695 23.83 5l9.389 17.66-8.83 4.694zm4.72 26.27v1.404h-2.743v7.969h-1.664v-7.969h-2.756v-1.404h7.163Zm4.812-.143c.529 0 1.031.078 1.508.234a3.273 3.273 0 0 1 2.132 1.963c.217.511.325 1.131.325 1.859v1.547c0 .737-.108 1.365-.325 1.885a3.273 3.273 0 0 1-.858 1.248c-.355.32-.776.555-1.26.702a5.124 5.124 0 0 1-1.522.221 5.253 5.253 0 0 1-1.534-.221 3.404 3.404 0 0 1-1.26-.702c-.356-.32-.642-.737-.859-1.248-.208-.52-.312-1.148-.312-1.885v-1.547c0-.728.104-1.348.312-1.859.217-.511.507-.927.871-1.248a3.3 3.3 0 0 1 1.261-.715 4.94 4.94 0 0 1 1.521-.234Zm0 8.138c.32 0 .62-.039.897-.117.277-.087.52-.234.728-.442.208-.208.368-.49.481-.845.121-.355.182-.802.182-1.339v-1.131c0-.537-.06-.984-.182-1.339-.113-.355-.273-.637-.48-.845a1.645 1.645 0 0 0-.729-.429 2.992 2.992 0 0 0-.897-.13c-.312 0-.607.043-.884.13-.277.078-.52.221-.728.429-.208.208-.373.49-.494.845s-.182.802-.182 1.339v1.131c0 .537.06.984.182 1.339.121.355.286.637.494.845.208.208.45.355.728.442.277.078.572.117.884.117Zm5.83-7.995h3.536c.563 0 1.044.07 1.442.208a2.6 2.6 0 0 1 1.002.559c.26.234.45.516.572.845.13.33.194.685.194 1.066v.273c0 .381-.064.745-.194 1.092a2.47 2.47 0 0 1-.599.897 3.099 3.099 0 0 1-1 .611c-.4.147-.871.221-1.417.221h-1.873v3.601h-1.663v-9.373Zm1.664 1.391v2.977h1.65c.546 0 .975-.104 1.288-.312.312-.208.468-.585.468-1.131v-.234c0-.26-.04-.472-.117-.637a.926.926 0 0 0-.338-.39 1.164 1.164 0 0 0-.508-.208 3.062 3.062 0 0 0-.65-.065h-1.794Z"/>
</svg>
