<svg xmlns="http://www.w3.org/2000/svg" width="50" height="50" fill="none" viewBox="0 0 50 50">
  <g clip-path="url(#a)">
    <circle cx="25" cy="25" r="24" fill="#ffffff" stroke="#000000" stroke-width="2"/>
    <path fill="#000000" d="M11.46 19.453v14.352c0 .184-.038.307-.115.368-.061.061-.168.092-.322.092H8.77c-.153 0-.268-.03-.345-.092-.061-.061-.092-.184-.092-.368V19.453h-4.07c-.17 0-.292-.03-.369-.092-.061-.061-.092-.176-.092-.345v-2.001c0-.307.154-.46.46-.46h11.316c.2 0 .322.038.368.115.061.061.092.176.092.345v2.001c0 .169-.03.284-.092.345-.046.061-.168.092-.368.092H11.46Zm18.518 12.558c-.72.905-1.572 1.572-2.553 2.001-.982.43-2.093.644-3.335.644-1.38 0-2.569-.253-3.565-.759a6.905 6.905 0 0 1-2.438-2.001 9.017 9.017 0 0 1-1.403-2.944 13.914 13.914 0 0 1-.437-3.519c0-1.196.153-2.346.46-3.45.306-1.12.782-2.1 1.426-2.944a7.026 7.026 0 0 1 2.438-2.047c.981-.506 2.154-.759 3.519-.759 1.35 0 2.515.26 3.496.782a7.027 7.027 0 0 1 2.438 2.047c.644.843 1.12 1.817 1.426 2.921.322 1.104.475 2.254.46 3.45-.015 1.35-.176 2.576-.483 3.68a8.31 8.31 0 0 1-1.45 2.898ZM24.09 19.085c-.797 0-1.488.184-2.07.552a4.52 4.52 0 0 0-1.426 1.426 6.988 6.988 0 0 0-.828 2.047 10.885 10.885 0 0 0 0 4.669 7.02 7.02 0 0 0 .828 2.024 4.763 4.763 0 0 0 1.426 1.449c.582.368 1.273.552 2.07.552.782 0 1.457-.184 2.024-.552a4.442 4.442 0 0 0 1.426-1.449 6.57 6.57 0 0 0 .805-2.047 9.92 9.92 0 0 0 .276-2.323c0-.767-.092-1.526-.276-2.277a6.565 6.565 0 0 0-.805-2.047 4.53 4.53 0 0 0-1.403-1.449c-.567-.383-1.25-.575-2.047-.575Zm14.101 8.303v6.417c0 .215-.038.345-.115.391-.06.061-.176.092-.345.092h-2.208c-.153 0-.268-.03-.345-.092-.076-.046-.115-.176-.115-.391V17.038c0-.184.039-.307.115-.368a.567.567 0 0 1 .322-.092h4.6c.844 0 1.61.107 2.3.322.706.215 1.304.544 1.794.989a4.318 4.318 0 0 1 1.127 1.679c.276.66.414 1.449.414 2.369 0 .89-.153 1.671-.46 2.346a4.74 4.74 0 0 1-1.219 1.702 5.167 5.167 0 0 1-1.84 1.058 7.38 7.38 0 0 1-2.3.345h-1.725Zm0-7.958v5.106h1.518c.92 0 1.626-.207 2.116-.621.491-.414.736-1.081.736-2.001 0-.813-.199-1.426-.598-1.84-.383-.43-.897-.644-1.54-.644H38.19Z"/>
  </g>
  <defs>
    <clipPath id="a">
      <path fill="#ffffff" d="M0 0h50v50H0z"/>
    </clipPath>
  </defs>
</svg>
