<svg xmlns="http://www.w3.org/2000/svg" width="100" height="100" fill="none" viewBox="0 0 100 100">
  <path fill="#fff" d="M0 0h100v100H0z"/>
  <path fill="#000" d="M26.23 92.546c-.019.075-.042.117-.07.126-.028.019-.08.028-.154.028h-1.33c-.075 0-.126-.01-.154-.028-.028-.01-.051-.051-.07-.126l-2.324-7.952-2.324 7.952c-.019.075-.042.117-.07.126-.019.019-.07.028-.154.028h-1.33c-.075 0-.126-.01-.154-.028-.028-.01-.051-.051-.07-.126L15.072 82.34c-.019-.065-.019-.112 0-.14.019-.037.089-.056.21-.056h1.162a.27.27 0 0 1 .14.028c.028.01.051.047.07.112l2.324 7.882 2.268-7.882c.019-.065.042-.103.07-.112a.348.348 0 0 1 .154-.028h1.316a.27.27 0 0 1 .14.028c.037.01.065.047.084.112l2.268 7.882 2.324-7.882c.019-.065.042-.103.07-.112.028-.019.075-.028.14-.028h1.162c.121 0 .191.019.21.056.019.028.019.075 0 .14L26.23 92.546Zm10.574.154a.27.27 0 0 1-.14-.028c-.028-.01-.056-.047-.084-.112l-1.008-2.52h-4.564L30 92.56c-.019.065-.042.103-.07.112-.028.019-.075.028-.14.028h-1.288c-.168 0-.224-.065-.168-.196l4.088-10.206a.581.581 0 0 1 .056-.126c.019-.019.075-.028.168-.028h1.302c.084 0 .135.01.154.028.019.01.042.051.07.126l4.088 10.206c.047.13-.01.196-.168.196h-1.288Zm-5.222-4.13h3.402l-1.694-4.312-1.708 4.312Zm8.156 4.13a.174.174 0 0 1-.126-.056.151.151 0 0 1-.042-.112v-10.22a.15.15 0 0 1 .042-.112.174.174 0 0 1 .126-.056h1.26c.047 0 .084.019.112.056a.133.133 0 0 1 .056.112v8.918h3.626c.112 0 .168.06.168.182v1.12a.133.133 0 0 1-.056.112.133.133 0 0 1-.112.056h-5.054Zm6.781 0a.174.174 0 0 1-.126-.056.151.151 0 0 1-.042-.112v-10.22a.15.15 0 0 1 .042-.112.174.174 0 0 1 .126-.056h1.26c.047 0 .084.019.112.056a.133.133 0 0 1 .056.112v8.918h3.626c.112 0 .168.06.168.182v1.12a.133.133 0 0 1-.056.112.133.133 0 0 1-.112.056H46.52Zm11.055.014c-.186 0-.298-.019-.336-.056-.037-.028-.056-.145-.056-.35v-9.786c0-.187.014-.294.042-.322.038-.037.145-.056.322-.056h4.97c.103 0 .164.019.182.056.019.028.028.084.028.168v1.036c0 .093-.014.159-.042.196-.028.028-.084.042-.168.042h-3.794v2.856h3.612c.14 0 .21.075.21.224v1.05c0 .159-.07.238-.21.238h-3.612v3.192h3.962c.13 0 .196.08.196.238v1.05c0 .15-.065.224-.196.224h-5.11Zm13.779-1.218a4.123 4.123 0 0 1-.854.532c-.318.15-.658.27-1.022.364a7.389 7.389 0 0 1-1.134.224c-.392.056-.78.084-1.162.084h-1.708c-.159 0-.257-.019-.294-.056-.028-.037-.042-.126-.042-.266v-9.87c0-.177.014-.28.042-.308.037-.037.144-.056.322-.056h2.38c1.82 0 3.173.513 4.06 1.54.392.448.681.97.868 1.568.196.588.294 1.302.294 2.142 0 .868-.154 1.657-.462 2.366a4.327 4.327 0 0 1-1.288 1.736Zm-.616-6.762c-.598-.737-1.559-1.106-2.884-1.106H66.76v7.574h.63c.541 0 1.05-.065 1.526-.196.476-.14.896-.36 1.26-.658.42-.317.742-.723.966-1.218.233-.504.35-1.101.35-1.792 0-.56-.061-1.055-.182-1.484a2.897 2.897 0 0 0-.574-1.12Zm5.958 7.784c0 .121-.061.182-.182.182h-1.275c-.12 0-.181-.06-.181-.182V82.326c0-.121.06-.182.181-.182h1.275c.12 0 .181.06.181.182v10.192Zm5.434-8.904v8.918c0 .112-.056.168-.168.168h-1.246c-.112 0-.168-.056-.168-.168v-8.918h-2.716a.205.205 0 0 1-.126-.042.227.227 0 0 1-.042-.14v-1.12a.15.15 0 0 1 .042-.112.174.174 0 0 1 .126-.056h7.028c.047 0 .084.019.112.056a.133.133 0 0 1 .056.112v1.12c0 .121-.056.182-.168.182h-2.73Zm-4.041-46.239h-4.35v23.813H26.262V22.3H50v-4.8H26.262a4.536 4.536 0 0 0-4.387 4.8v38.888a4.536 4.536 0 0 0 4.387 4.687h47.475a4.537 4.537 0 0 0 4.388-4.688l-.037-23.812Z"/>
  <path fill="#000" d="M59.6 20.762 43.325 37.075l-1.65 1.65-.3.3-5.7 11.85a4.05 4.05 0 0 0 5.438 5.438l11.775-5.738 1.987-1.988 1.612-1.612 16.276-16.35 1.687-1.65.938-.938a8.175 8.175 0 0 0 0-11.55 8.137 8.137 0 0 0-5.738-2.362 8.25 8.25 0 0 0-5.775 2.363l-2.625 2.587-1.688 1.65.038.037ZM40.662 51.25l4.425-9.112 4.688 4.724-9.112 4.388Zm7.5-12.6 14.626-14.662 4.874 4.912-14.475 14.85-5.024-5.1Zm21.3-19.912A3.375 3.375 0 0 1 71.9 19.75a3.488 3.488 0 0 1 0 4.913l-.938.9-4.874-4.875.937-.938a3.3 3.3 0 0 1 2.587-.938l-.15-.075Z"/>
</svg>
